<svg width="186" height="133" viewBox="0 0 186 133" fill="none" xmlns="http://www.w3.org/2000/svg">
<path d="M1.03409 36V1.09091H14.8068C17.4545 1.09091 19.7102 1.59659 21.5739 2.60795C23.4375 3.60795 24.858 5 25.8352 6.78409C26.8239 8.55682 27.3182 10.6023 27.3182 12.9205C27.3182 15.2386 26.8182 17.2841 25.8182 19.0568C24.8182 20.8295 23.3693 22.2102 21.4716 23.1989C19.5852 24.1875 17.3011 24.6818 14.6193 24.6818H5.84091V18.767H13.4261C14.8466 18.767 16.017 18.5227 16.9375 18.0341C17.8693 17.5341 18.5625 16.8466 19.017 15.9716C19.483 15.0852 19.7159 14.0682 19.7159 12.9205C19.7159 11.7614 19.483 10.75 19.017 9.88636C18.5625 9.01136 17.8693 8.33523 16.9375 7.85795C16.0057 7.36932 14.8239 7.125 13.392 7.125H8.41477V36H1.03409ZM29.2322 36V1.09091H36.6129V15.4943H51.5959V1.09091H58.9595V36H51.5959V21.5795H36.6129V36H29.2322ZM94.2443 18.5455C94.2443 22.3523 93.5227 25.5909 92.0795 28.2614C90.6477 30.9318 88.6931 32.9716 86.2158 34.3807C83.7499 35.7784 80.9772 36.4773 77.8977 36.4773C74.7954 36.4773 72.0113 35.7727 69.5454 34.3636C67.0795 32.9545 65.1306 30.9148 63.6988 28.2443C62.267 25.5739 61.5511 22.3409 61.5511 18.5455C61.5511 14.7386 62.267 11.5 63.6988 8.82955C65.1306 6.15909 67.0795 4.125 69.5454 2.72727C72.0113 1.31818 74.7954 0.613635 77.8977 0.613635C80.9772 0.613635 83.7499 1.31818 86.2158 2.72727C88.6931 4.125 90.6477 6.15909 92.0795 8.82955C93.5227 11.5 94.2443 14.7386 94.2443 18.5455ZM86.7613 18.5455C86.7613 16.0795 86.392 14 85.6533 12.3068C84.9261 10.6136 83.8977 9.32955 82.5681 8.45455C81.2386 7.57955 79.6818 7.14205 77.8977 7.14205C76.1136 7.14205 74.5568 7.57955 73.2272 8.45455C71.8977 9.32955 70.8636 10.6136 70.1249 12.3068C69.3977 14 69.034 16.0795 69.034 18.5455C69.034 21.0114 69.3977 23.0909 70.1249 24.7841C70.8636 26.4773 71.8977 27.7614 73.2272 28.6364C74.5568 29.5114 76.1136 29.9489 77.8977 29.9489C79.6818 29.9489 81.2386 29.5114 82.5681 28.6364C83.8977 27.7614 84.9261 26.4773 85.6533 24.7841C86.392 23.0909 86.7613 21.0114 86.7613 18.5455ZM93.9083 7.17614V1.09091H122.579V7.17614H111.891V36H104.596V7.17614H93.9083ZM154.906 18.5455C154.906 22.3523 154.185 25.5909 152.741 28.2614C151.31 30.9318 149.355 32.9716 146.878 34.3807C144.412 35.7784 141.639 36.4773 138.56 36.4773C135.457 36.4773 132.673 35.7727 130.207 34.3636C127.741 32.9545 125.792 30.9148 124.361 28.2443C122.929 25.5739 122.213 22.3409 122.213 18.5455C122.213 14.7386 122.929 11.5 124.361 8.82955C125.792 6.15909 127.741 4.125 130.207 2.72727C132.673 1.31818 135.457 0.613635 138.56 0.613635C141.639 0.613635 144.412 1.31818 146.878 2.72727C149.355 4.125 151.31 6.15909 152.741 8.82955C154.185 11.5 154.906 14.7386 154.906 18.5455ZM147.423 18.5455C147.423 16.0795 147.054 14 146.315 12.3068C145.588 10.6136 144.56 9.32955 143.23 8.45455C141.9 7.57955 140.344 7.14205 138.56 7.14205C136.775 7.14205 135.219 7.57955 133.889 8.45455C132.56 9.32955 131.525 10.6136 130.787 12.3068C130.06 14 129.696 16.0795 129.696 18.5455C129.696 21.0114 130.06 23.0909 130.787 24.7841C131.525 26.4773 132.56 27.7614 133.889 28.6364C135.219 29.5114 136.775 29.9489 138.56 29.9489C140.344 29.9489 141.9 29.5114 143.23 28.6364C144.56 27.7614 145.588 26.4773 146.315 24.7841C147.054 23.0909 147.423 21.0114 147.423 18.5455ZM17.2102 63.6648V69.4261H1.28977V63.6648H17.2102ZM39.5916 59.1307C39.4552 57.7557 38.87 56.6875 37.8359 55.9261C36.8018 55.1648 35.3984 54.7841 33.6257 54.7841C32.4211 54.7841 31.4041 54.9545 30.5745 55.2955C29.745 55.625 29.1086 56.0852 28.6655 56.6761C28.2336 57.267 28.0177 57.9375 28.0177 58.6875C27.995 59.3125 28.1257 59.858 28.4098 60.3239C28.7052 60.7898 29.1086 61.1932 29.62 61.5341C30.1314 61.8636 30.7223 62.1534 31.3927 62.4034C32.0632 62.642 32.7791 62.8466 33.5405 63.017L36.6768 63.767C38.1995 64.108 39.5973 64.5625 40.87 65.1307C42.1427 65.6989 43.245 66.3977 44.1768 67.2273C45.1086 68.0568 45.8302 69.0341 46.3416 70.1591C46.8643 71.2841 47.1314 72.5739 47.1427 74.0284C47.1314 76.1648 46.5859 78.017 45.5064 79.5852C44.4382 81.142 42.8927 82.3523 40.87 83.2159C38.8586 84.0682 36.4325 84.4943 33.5916 84.4943C30.7734 84.4943 28.3189 84.0625 26.228 83.1989C24.1484 82.3352 22.5234 81.0568 21.353 79.3636C20.1939 77.6591 19.5859 75.5511 19.5291 73.0398H26.6711C26.7507 74.2102 27.0859 75.1875 27.6768 75.9716C28.2791 76.7443 29.0802 77.3295 30.0802 77.7273C31.0916 78.1136 32.2336 78.3068 33.5064 78.3068C34.7564 78.3068 35.8416 78.125 36.762 77.7614C37.6939 77.3977 38.4155 76.892 38.9268 76.2443C39.4382 75.5966 39.6939 74.8523 39.6939 74.0114C39.6939 73.2273 39.4609 72.5682 38.995 72.0341C38.5405 71.5 37.87 71.0455 36.9836 70.6705C36.1086 70.2955 35.0348 69.9545 33.762 69.6477L29.9609 68.6932C27.0177 67.9773 24.6939 66.858 22.9893 65.3352C21.2848 63.8125 20.4382 61.7614 20.4495 59.1818C20.4382 57.0682 21.0007 55.2216 22.137 53.642C23.2848 52.0625 24.8586 50.8295 26.8586 49.9432C28.8586 49.0568 31.1314 48.6136 33.6768 48.6136C36.2677 48.6136 38.5291 49.0568 40.4609 49.9432C42.4041 50.8295 43.9155 52.0625 44.995 53.642C46.0745 55.2216 46.6314 57.0511 46.6655 59.1307H39.5916ZM47.8977 55.1761V49.0909H76.5681V55.1761H65.8806V84H58.5852V55.1761H47.8977ZM99.9722 49.0909H107.353V71.7614C107.353 74.3068 106.745 76.5341 105.529 78.4432C104.324 80.3523 102.637 81.8409 100.467 82.9091C98.2961 83.9659 95.7677 84.4943 92.8813 84.4943C89.9836 84.4943 87.4495 83.9659 85.279 82.9091C83.1086 81.8409 81.4211 80.3523 80.2165 78.4432C79.012 76.5341 78.4097 74.3068 78.4097 71.7614V49.0909H85.7904V71.1307C85.7904 72.4602 86.0802 73.642 86.6597 74.6761C87.2506 75.7102 88.0802 76.5227 89.1484 77.1136C90.2165 77.7045 91.4609 78 92.8813 78C94.3131 78 95.5574 77.7045 96.6143 77.1136C97.6824 76.5227 98.5063 75.7102 99.0859 74.6761C99.6768 73.642 99.9722 72.4602 99.9722 71.1307V49.0909ZM122.92 84H110.545V49.0909H123.023C126.534 49.0909 129.557 49.7898 132.091 51.1875C134.625 52.5739 136.574 54.5682 137.937 57.1705C139.312 59.7727 140 62.8864 140 66.5114C140 70.1477 139.312 73.2727 137.937 75.8864C136.574 78.5 134.614 80.5057 132.057 81.9034C129.511 83.3011 126.466 84 122.92 84ZM117.926 77.6761H122.614C124.795 77.6761 126.631 77.2898 128.119 76.517C129.619 75.733 130.744 74.5227 131.494 72.8864C132.256 71.2386 132.636 69.1136 132.636 66.5114C132.636 63.9318 132.256 61.8239 131.494 60.1875C130.744 58.5511 129.625 57.3466 128.136 56.5739C126.648 55.8011 124.812 55.4148 122.631 55.4148H117.926V77.6761ZM149.968 49.0909V84H142.587V49.0909H149.968ZM185.24 66.5455C185.24 70.3523 184.518 73.5909 183.075 76.2614C181.643 78.9318 179.689 80.9716 177.211 82.3807C174.746 83.7784 171.973 84.4773 168.893 84.4773C165.791 84.4773 163.007 83.7727 160.541 82.3636C158.075 80.9545 156.126 78.9148 154.694 76.2443C153.263 73.5739 152.547 70.3409 152.547 66.5455C152.547 62.7386 153.263 59.5 154.694 56.8295C156.126 54.1591 158.075 52.125 160.541 50.7273C163.007 49.3182 165.791 48.6136 168.893 48.6136C171.973 48.6136 174.746 49.3182 177.211 50.7273C179.689 52.125 181.643 54.1591 183.075 56.8295C184.518 59.5 185.24 62.7386 185.24 66.5455ZM177.757 66.5455C177.757 64.0795 177.388 62 176.649 60.3068C175.922 58.6136 174.893 57.3295 173.564 56.4545C172.234 55.5795 170.677 55.142 168.893 55.142C167.109 55.142 165.552 55.5795 164.223 56.4545C162.893 57.3295 161.859 58.6136 161.121 60.3068C160.393 62 160.03 64.0795 160.03 66.5455C160.03 69.0114 160.393 71.0909 161.121 72.7841C161.859 74.4773 162.893 75.7614 164.223 76.6364C165.552 77.5114 167.109 77.9489 168.893 77.9489C170.677 77.9489 172.234 77.5114 173.564 76.6364C174.893 75.7614 175.922 74.4773 176.649 72.7841C177.388 71.0909 177.757 69.0114 177.757 66.5455ZM0.829546 132V126.682L13.2557 115.176C14.3125 114.153 15.1989 113.233 15.9148 112.415C16.642 111.597 17.1932 110.795 17.5682 110.011C17.9432 109.216 18.1307 108.358 18.1307 107.438C18.1307 106.415 17.8977 105.534 17.4318 104.795C16.9659 104.045 16.3295 103.472 15.5227 103.074C14.7159 102.665 13.8011 102.46 12.7784 102.46C11.7102 102.46 10.7784 102.676 9.98295 103.108C9.1875 103.54 8.57386 104.159 8.14205 104.966C7.71023 105.773 7.49432 106.733 7.49432 107.847H0.488636C0.488636 105.562 1.00568 103.58 2.03977 101.898C3.07386 100.216 4.52273 98.9148 6.38636 97.9943C8.25 97.0739 10.3977 96.6136 12.8295 96.6136C15.3295 96.6136 17.5057 97.0568 19.358 97.9432C21.2216 98.8182 22.6705 100.034 23.7045 101.591C24.7386 103.148 25.2557 104.932 25.2557 106.943C25.2557 108.261 24.9943 109.562 24.4716 110.847C23.9602 112.131 23.0455 113.557 21.7273 115.125C20.4091 116.682 18.5511 118.551 16.1534 120.733L11.0568 125.727V125.966H25.7159V132H0.829546ZM41.8714 132.767C38.9396 132.756 36.4169 132.034 34.3032 130.602C32.201 129.17 30.5816 127.097 29.4453 124.381C28.3203 121.665 27.7635 118.398 27.7748 114.58C27.7748 110.773 28.3373 107.528 29.4623 104.847C30.5987 102.165 32.218 100.125 34.3203 98.7273C36.4339 97.3182 38.951 96.6136 41.8714 96.6136C44.7919 96.6136 47.3032 97.3182 49.4055 98.7273C51.5191 100.136 53.1441 102.182 54.2805 104.864C55.4169 107.534 55.9794 110.773 55.968 114.58C55.968 118.409 55.3998 121.682 54.2635 124.398C53.1385 127.114 51.5248 129.187 49.4226 130.619C47.3203 132.051 44.8032 132.767 41.8714 132.767ZM41.8714 126.648C43.8714 126.648 45.468 125.642 46.6612 123.631C47.8544 121.619 48.4453 118.602 48.4339 114.58C48.4339 111.932 48.1612 109.727 47.6157 107.966C47.0816 106.205 46.3203 104.881 45.3316 103.994C44.3544 103.108 43.201 102.665 41.8714 102.665C39.8828 102.665 38.2919 103.659 37.0987 105.648C35.9055 107.636 35.3032 110.614 35.2919 114.58C35.2919 117.261 35.5589 119.5 36.093 121.295C36.6385 123.08 37.4055 124.42 38.3941 125.318C39.3828 126.205 40.5419 126.648 41.8714 126.648ZM58.3508 132V126.682L70.7769 115.176C71.8337 114.153 72.7201 113.233 73.436 112.415C74.1633 111.597 74.7144 110.795 75.0894 110.011C75.4644 109.216 75.6519 108.358 75.6519 107.438C75.6519 106.415 75.419 105.534 74.9531 104.795C74.4872 104.045 73.8508 103.472 73.044 103.074C72.2372 102.665 71.3224 102.46 70.2997 102.46C69.2315 102.46 68.2997 102.676 67.5042 103.108C66.7087 103.54 66.0951 104.159 65.6633 104.966C65.2315 105.773 65.0156 106.733 65.0156 107.847H58.0099C58.0099 105.562 58.5269 103.58 59.561 101.898C60.5951 100.216 62.044 98.9148 63.9076 97.9943C65.7712 97.0739 67.919 96.6136 70.3508 96.6136C72.8508 96.6136 75.0269 97.0568 76.8792 97.9432C78.7428 98.8182 80.1917 100.034 81.2258 101.591C82.2599 103.148 82.7769 104.932 82.7769 106.943C82.7769 108.261 82.5156 109.562 81.9928 110.847C81.4815 112.131 80.5667 113.557 79.2485 115.125C77.9303 116.682 76.0724 118.551 73.6747 120.733L68.5781 125.727V125.966H83.2372V132H58.3508ZM98.4552 132.477C96.0461 132.477 93.8984 132.034 92.012 131.148C90.137 130.261 88.6484 129.04 87.5461 127.483C86.4438 125.926 85.8699 124.142 85.8245 122.131H92.9836C93.0631 123.483 93.6313 124.58 94.6881 125.42C95.7449 126.261 97.0006 126.682 98.4552 126.682C99.6143 126.682 100.637 126.426 101.523 125.915C102.421 125.392 103.12 124.67 103.62 123.75C104.131 122.818 104.387 121.75 104.387 120.545C104.387 119.318 104.126 118.239 103.603 117.307C103.092 116.375 102.381 115.648 101.472 115.125C100.563 114.602 99.5234 114.335 98.3529 114.324C97.3302 114.324 96.3359 114.534 95.3699 114.955C94.4154 115.375 93.6711 115.949 93.137 116.676L86.5745 115.5L88.2279 97.0909H109.569V103.125H94.3131L93.4097 111.869H93.6143C94.2279 111.006 95.154 110.29 96.3927 109.722C97.6313 109.153 99.0177 108.869 100.552 108.869C102.654 108.869 104.529 109.364 106.177 110.352C107.824 111.341 109.126 112.699 110.08 114.426C111.035 116.142 111.506 118.119 111.495 120.358C111.506 122.71 110.961 124.801 109.859 126.631C108.768 128.449 107.239 129.881 105.273 130.926C103.319 131.96 101.046 132.477 98.4552 132.477Z" fill="#2E2E2E"/>
</svg>
